<svg width="1440" height="547" viewBox="0 0 1440 547" fill="none" xmlns="http://www.w3.org/2000/svg">
<path d="M1165.47 340.936C1164.93 338.69 1167.02 336.703 1169.24 337.359L1175.88 339.327C1178.09 339.984 1178.77 342.791 1177.09 344.38L1172.07 349.149C1170.39 350.738 1167.62 349.918 1167.08 347.673L1165.47 340.936Z" fill="#EC9AC1"/>
<path d="M0 303.669C28.934 279.526 78.6557 244.244 137.925 228.243C205.5 210 322.663 196.964 371.172 271.201C395.132 307.869 369.128 349.5 398 381.5C426.691 413.299 474.941 392.863 511.5 410C543.5 425 552 451.5 567 470" stroke="#E4E4E4"/>
<path d="M1233.41 125.601C1298.52 186.335 1388.29 190.871 1440 182.351V470H398V261.195C408.027 261.195 425.299 257.093 442.217 261.195C479.876 270.324 524.358 339.837 562.126 348.307C654.152 368.948 750.526 220.595 750.526 220.595C750.526 220.595 818.343 133.616 864.291 80.8417C909.218 29.2406 951.735 2.14528e-05 1043.27 0C1117.2 -1.73257e-05 1188.2 83.4218 1233.41 125.601Z" fill="#FFFAF4"/>
<path d="M285.099 146.045C195.248 216.664 71.3581 221.938 0 212.032V546.5H1438V303.708C1424.16 303.708 1400.33 298.939 1376.98 303.708C1325.01 314.324 1263.62 395.15 1211.5 405C1084.5 429 951.5 256.5 951.5 256.5C951.5 256.5 857.91 155.364 794.5 94C732.5 34 673.824 2.49445e-05 547.5 0C445.478 -2.01457e-05 347.5 97 285.099 146.045Z" fill="#FDF6EE"/>
</svg>
